<?xml version="1.0" encoding="UTF-8" standalone="no"?>
<!DOCTYPE svg PUBLIC "-//W3C//DTD SVG 1.1//EN"
 "http://www.w3.org/Graphics/SVG/1.1/DTD/svg11.dtd">
<!-- Generated by graphviz version 2.40.1 (20161225.0304)
 -->
<!-- Title: dependencies Pages: 1 -->
<svg width="3937pt" height="284pt"
 viewBox="0.00 0.00 3937.00 284.00" xmlns="http://www.w3.org/2000/svg" xmlns:xlink="http://www.w3.org/1999/xlink">
<g id="graph0" class="graph" transform="scale(1 1) rotate(0) translate(4 280)">
<title>dependencies</title>
<polygon fill="#ffffff" stroke="transparent" points="-4,4 -4,-280 3933,-280 3933,4 -4,4"/>
<text text-anchor="start" x="1943.5091" y="-42.4" font-family="sans-serif" font-weight="bold" font-size="14.00" fill="#000000">Legend</text>
<polygon fill="#ffffb3" stroke="transparent" points="1730.5,-10 1730.5,-30 1750.5,-30 1750.5,-10 1730.5,-10"/>
<text text-anchor="start" x="1754.129" y="-15.4" font-family="sans-serif" font-size="14.00" fill="#000000"> &#160;Declarations</text>
<polygon fill="#8dd3c7" stroke="transparent" points="1843.5,-10 1843.5,-30 1863.5,-30 1863.5,-10 1843.5,-10"/>
<text text-anchor="start" x="1867.2251" y="-15.4" font-family="sans-serif" font-size="14.00" fill="#000000"> &#160;Module</text>
<polygon fill="#80b1d3" stroke="transparent" points="1929.5,-10 1929.5,-30 1949.5,-30 1949.5,-10 1929.5,-10"/>
<text text-anchor="start" x="1953.2812" y="-15.4" font-family="sans-serif" font-size="14.00" fill="#000000"> &#160;Bootstrap</text>
<polygon fill="#fdb462" stroke="transparent" points="2026.5,-10 2026.5,-30 2046.5,-30 2046.5,-10 2026.5,-10"/>
<text text-anchor="start" x="2050.1732" y="-15.4" font-family="sans-serif" font-size="14.00" fill="#000000"> &#160;Providers</text>
<polygon fill="#fb8072" stroke="transparent" points="2122.5,-10 2122.5,-30 2142.5,-30 2142.5,-10 2122.5,-10"/>
<text text-anchor="start" x="2146.2258" y="-15.4" font-family="sans-serif" font-size="14.00" fill="#000000"> &#160;Exports</text>
<g id="clust1" class="cluster">
<title>cluster_AppModule</title>
<polygon fill="none" stroke="#000000" stroke-dasharray="1,5" points="8,-70 8,-268 3921,-268 3921,-70 8,-70"/>
</g>
<g id="clust2" class="cluster">
<title>cluster_AppModule_declarations</title>
<polygon fill="none" stroke="#000000" points="2624,-78 2624,-130 3913,-130 3913,-78 2624,-78"/>
</g>
<g id="clust12" class="cluster">
<title>cluster_AppModule_imports</title>
<polygon fill="none" stroke="#000000" points="250,-78 250,-130 2616,-130 2616,-78 250,-78"/>
</g>
<g id="clust14" class="cluster">
<title>cluster_AppModule_bootstrap</title>
<polygon fill="none" stroke="#000000" points="1811,-208 1811,-260 1935,-260 1935,-208 1811,-208"/>
</g>
<g id="clust15" class="cluster">
<title>cluster_AppModule_providers</title>
<polygon fill="none" stroke="#000000" points="16,-78 16,-130 242,-130 242,-78 16,-78"/>
</g>
<!-- AppComponent -->
<g id="node1" class="node">
<title>AppComponent</title>
<polygon fill="#ffffb3" stroke="#000000" points="3904.9399,-122 3799.0601,-122 3799.0601,-86 3904.9399,-86 3904.9399,-122"/>
<text text-anchor="middle" x="3852" y="-99.8" font-family="Times,serif" font-size="14.00" fill="#000000">AppComponent</text>
</g>
<!-- AppModule -->
<g id="node10" class="node">
<title>AppModule</title>
<polygon fill="#8dd3c7" stroke="#000000" points="1914.6571,-187 1911.6571,-191 1890.6571,-191 1887.6571,-187 1831.3429,-187 1831.3429,-151 1914.6571,-151 1914.6571,-187"/>
<text text-anchor="middle" x="1873" y="-164.8" font-family="Times,serif" font-size="14.00" fill="#000000">AppModule</text>
</g>
<!-- AppComponent&#45;&gt;AppModule -->
<g id="edge1" class="edge">
<title>AppComponent&#45;&gt;AppModule</title>
<path fill="none" stroke="#000000" d="M3852,-122.3802C3852,-146.2785 3852,-185 3852,-185 3852,-185 1924.7908,-185 1924.7908,-185"/>
<polygon fill="#000000" stroke="#000000" points="1924.7909,-181.5001 1914.7908,-185 1924.7908,-188.5001 1924.7909,-181.5001"/>
</g>
<!-- HomeComponent -->
<g id="node2" class="node">
<title>HomeComponent</title>
<polygon fill="#ffffb3" stroke="#000000" points="3781.5451,-122 3666.4549,-122 3666.4549,-86 3781.5451,-86 3781.5451,-122"/>
<text text-anchor="middle" x="3724" y="-99.8" font-family="Times,serif" font-size="14.00" fill="#000000">HomeComponent</text>
</g>
<!-- HomeComponent&#45;&gt;AppModule -->
<g id="edge2" class="edge">
<title>HomeComponent&#45;&gt;AppModule</title>
<path fill="none" stroke="#000000" d="M3724,-122.0908C3724,-145.1328 3724,-182 3724,-182 3724,-182 1924.6962,-182 1924.6962,-182"/>
<polygon fill="#000000" stroke="#000000" points="1924.6962,-178.5001 1914.6962,-182 1924.6961,-185.5001 1924.6962,-178.5001"/>
</g>
<!-- DetailedCardComponent -->
<g id="node3" class="node">
<title>DetailedCardComponent</title>
<polygon fill="#ffffb3" stroke="#000000" points="3647.9664,-122 3492.0336,-122 3492.0336,-86 3647.9664,-86 3647.9664,-122"/>
<text text-anchor="middle" x="3570" y="-99.8" font-family="Times,serif" font-size="14.00" fill="#000000">DetailedCardComponent</text>
</g>
<!-- DetailedCardComponent&#45;&gt;AppModule -->
<g id="edge3" class="edge">
<title>DetailedCardComponent&#45;&gt;AppModule</title>
<path fill="none" stroke="#000000" d="M3570,-122.1554C3570,-144.3519 3570,-179 3570,-179 3570,-179 1924.9485,-179 1924.9485,-179"/>
<polygon fill="#000000" stroke="#000000" points="1924.9486,-175.5001 1914.9485,-179 1924.9485,-182.5001 1924.9486,-175.5001"/>
</g>
<!-- AboutComponent -->
<g id="node4" class="node">
<title>AboutComponent</title>
<polygon fill="#ffffb3" stroke="#000000" points="3474.3301,-122 3357.6699,-122 3357.6699,-86 3474.3301,-86 3474.3301,-122"/>
<text text-anchor="middle" x="3416" y="-99.8" font-family="Times,serif" font-size="14.00" fill="#000000">AboutComponent</text>
</g>
<!-- AboutComponent&#45;&gt;AppModule -->
<g id="edge4" class="edge">
<title>AboutComponent&#45;&gt;AppModule</title>
<path fill="none" stroke="#000000" d="M3416,-122.1686C3416,-143.498 3416,-176 3416,-176 3416,-176 1924.6708,-176 1924.6708,-176"/>
<polygon fill="#000000" stroke="#000000" points="1924.6708,-172.5001 1914.6708,-176 1924.6707,-179.5001 1924.6708,-172.5001"/>
</g>
<!-- PageHeaderComponent -->
<g id="node5" class="node">
<title>PageHeaderComponent</title>
<polygon fill="#ffffb3" stroke="#000000" points="3339.4552,-122 3190.5448,-122 3190.5448,-86 3339.4552,-86 3339.4552,-122"/>
<text text-anchor="middle" x="3265" y="-99.8" font-family="Times,serif" font-size="14.00" fill="#000000">PageHeaderComponent</text>
</g>
<!-- PageHeaderComponent&#45;&gt;AppModule -->
<g id="edge5" class="edge">
<title>PageHeaderComponent&#45;&gt;AppModule</title>
<path fill="none" stroke="#000000" d="M3265,-122.0267C3265,-142.7672 3265,-174 3265,-174 3265,-174 1924.6598,-174 1924.6598,-174"/>
<polygon fill="#000000" stroke="#000000" points="1924.6598,-170.5001 1914.6598,-174 1924.6598,-177.5001 1924.6598,-170.5001"/>
</g>
<!-- ContactComponent -->
<g id="node6" class="node">
<title>ContactComponent</title>
<polygon fill="#ffffb3" stroke="#000000" points="3172.3795,-122 3047.6205,-122 3047.6205,-86 3172.3795,-86 3172.3795,-122"/>
<text text-anchor="middle" x="3110" y="-99.8" font-family="Times,serif" font-size="14.00" fill="#000000">ContactComponent</text>
</g>
<!-- ContactComponent&#45;&gt;AppModule -->
<g id="edge6" class="edge">
<title>ContactComponent&#45;&gt;AppModule</title>
<path fill="none" stroke="#000000" d="M3110,-122.308C3110,-142.1455 3110,-171 3110,-171 3110,-171 1924.866,-171 1924.866,-171"/>
<polygon fill="#000000" stroke="#000000" points="1924.866,-167.5001 1914.866,-171 1924.866,-174.5001 1924.866,-167.5001"/>
</g>
<!-- BlogComponent -->
<g id="node7" class="node">
<title>BlogComponent</title>
<polygon fill="#ffffb3" stroke="#000000" points="3029.0605,-122 2920.9395,-122 2920.9395,-86 3029.0605,-86 3029.0605,-122"/>
<text text-anchor="middle" x="2975" y="-99.8" font-family="Times,serif" font-size="14.00" fill="#000000">BlogComponent</text>
</g>
<!-- BlogComponent&#45;&gt;AppModule -->
<g id="edge7" class="edge">
<title>BlogComponent&#45;&gt;AppModule</title>
<path fill="none" stroke="#000000" d="M2975,-122.1686C2975,-141.0898 2975,-168 2975,-168 2975,-168 1924.854,-168 1924.854,-168"/>
<polygon fill="#000000" stroke="#000000" points="1924.8541,-164.5001 1914.854,-168 1924.854,-171.5001 1924.8541,-164.5001"/>
</g>
<!-- PortfolioComponent -->
<g id="node8" class="node">
<title>PortfolioComponent</title>
<polygon fill="#ffffb3" stroke="#000000" points="2902.608,-122 2771.392,-122 2771.392,-86 2902.608,-86 2902.608,-122"/>
<text text-anchor="middle" x="2837" y="-99.8" font-family="Times,serif" font-size="14.00" fill="#000000">PortfolioComponent</text>
</g>
<!-- PortfolioComponent&#45;&gt;AppModule -->
<g id="edge8" class="edge">
<title>PortfolioComponent&#45;&gt;AppModule</title>
<path fill="none" stroke="#000000" d="M2837,-122.302C2837,-140.2699 2837,-165 2837,-165 2837,-165 1924.7313,-165 1924.7313,-165"/>
<polygon fill="#000000" stroke="#000000" points="1924.7313,-161.5001 1914.7313,-165 1924.7313,-168.5001 1924.7313,-161.5001"/>
</g>
<!-- HeaderComponent -->
<g id="node9" class="node">
<title>HeaderComponent</title>
<polygon fill="#ffffb3" stroke="#000000" points="2753.7437,-122 2632.2563,-122 2632.2563,-86 2753.7437,-86 2753.7437,-122"/>
<text text-anchor="middle" x="2693" y="-99.8" font-family="Times,serif" font-size="14.00" fill="#000000">HeaderComponent</text>
</g>
<!-- HeaderComponent&#45;&gt;AppModule -->
<g id="edge9" class="edge">
<title>HeaderComponent&#45;&gt;AppModule</title>
<path fill="none" stroke="#000000" d="M2693,-122.0225C2693,-139.3734 2693,-163 2693,-163 2693,-163 1924.7913,-163 1924.7913,-163"/>
<polygon fill="#000000" stroke="#000000" points="1924.7913,-159.5001 1914.7913,-163 1924.7912,-166.5001 1924.7913,-159.5001"/>
</g>
<!-- AppComponent  -->
<g id="node26" class="node">
<title>AppComponent </title>
<polygon fill="#80b1d3" stroke="#000000" points="1927.439,-252 1818.561,-252 1818.561,-216 1927.439,-216 1927.439,-252"/>
<text text-anchor="middle" x="1873" y="-229.8" font-family="Times,serif" font-size="14.00" fill="#000000">AppComponent </text>
</g>
<!-- AppModule&#45;&gt;AppComponent  -->
<g id="edge25" class="edge">
<title>AppModule&#45;&gt;AppComponent </title>
<path fill="none" stroke="#000000" stroke-dasharray="1,5" d="M1873,-187.1061C1873,-187.1061 1873,-205.991 1873,-205.991"/>
<polygon fill="#000000" stroke="#000000" points="1869.5001,-205.9909 1873,-215.991 1876.5001,-205.991 1869.5001,-205.9909"/>
</g>
<!-- RouterModule.forRoot(args) -->
<g id="node11" class="node">
<title>RouterModule.forRoot(args)</title>
<polygon fill="#8dd3c7" stroke="#000000" points="2607.8419,-122 2604.8419,-126 2583.8419,-126 2580.8419,-122 2430.1581,-122 2430.1581,-86 2607.8419,-86 2607.8419,-122"/>
<text text-anchor="middle" x="2519" y="-99.8" font-family="Times,serif" font-size="14.00" fill="#000000">RouterModule.forRoot(args)</text>
</g>
<!-- RouterModule.forRoot(args)&#45;&gt;AppModule -->
<g id="edge10" class="edge">
<title>RouterModule.forRoot(args)&#45;&gt;AppModule</title>
<path fill="none" stroke="#000000" d="M2519,-122.027C2519,-138.3976 2519,-160 2519,-160 2519,-160 1924.8881,-160 1924.8881,-160"/>
<polygon fill="#000000" stroke="#000000" points="1924.8882,-156.5001 1914.8881,-160 1924.8881,-163.5001 1924.8882,-156.5001"/>
</g>
<!-- MarkdownModule.forRoot() -->
<g id="node12" class="node">
<title>MarkdownModule.forRoot()</title>
<polygon fill="#8dd3c7" stroke="#000000" points="2412.8461,-122 2409.8461,-126 2388.8461,-126 2385.8461,-122 2235.1539,-122 2235.1539,-86 2412.8461,-86 2412.8461,-122"/>
<text text-anchor="middle" x="2324" y="-99.8" font-family="Times,serif" font-size="14.00" fill="#000000">MarkdownModule.forRoot()</text>
</g>
<!-- MarkdownModule.forRoot()&#45;&gt;AppModule -->
<g id="edge11" class="edge">
<title>MarkdownModule.forRoot()&#45;&gt;AppModule</title>
<path fill="none" stroke="#000000" d="M2324,-122.2396C2324,-137.5706 2324,-157 2324,-157 2324,-157 1925.024,-157 1925.024,-157"/>
<polygon fill="#000000" stroke="#000000" points="1925.024,-153.5001 1915.024,-157 1925.024,-160.5001 1925.024,-153.5001"/>
</g>
<!-- AngularFireModule.initializeApp(args) -->
<g id="node13" class="node">
<title>AngularFireModule.initializeApp(args)</title>
<polygon fill="#8dd3c7" stroke="#000000" points="2217.7057,-122 2214.7057,-126 2193.7057,-126 2190.7057,-122 1980.2943,-122 1980.2943,-86 2217.7057,-86 2217.7057,-122"/>
<text text-anchor="middle" x="2099" y="-99.8" font-family="Times,serif" font-size="14.00" fill="#000000">AngularFireModule.initializeApp(args)</text>
</g>
<!-- AngularFireModule.initializeApp(args)&#45;&gt;AppModule -->
<g id="edge12" class="edge">
<title>AngularFireModule.initializeApp(args)&#45;&gt;AppModule</title>
<path fill="none" stroke="#000000" d="M2099,-122.0511C2099,-136.373 2099,-154 2099,-154 2099,-154 1924.7153,-154 1924.7153,-154"/>
<polygon fill="#000000" stroke="#000000" points="1924.7153,-150.5001 1914.7153,-154 1924.7152,-157.5001 1924.7153,-150.5001"/>
</g>
<!-- AngularFireDatabaseModule -->
<g id="node14" class="node">
<title>AngularFireDatabaseModule</title>
<polygon fill="#8dd3c7" stroke="#000000" points="1962.771,-122 1959.771,-126 1938.771,-126 1935.771,-122 1783.229,-122 1783.229,-86 1962.771,-86 1962.771,-122"/>
<text text-anchor="middle" x="1873" y="-99.8" font-family="Times,serif" font-size="14.00" fill="#000000">AngularFireDatabaseModule</text>
</g>
<!-- AngularFireDatabaseModule&#45;&gt;AppModule -->
<g id="edge13" class="edge">
<title>AngularFireDatabaseModule&#45;&gt;AppModule</title>
<path fill="none" stroke="#000000" d="M1873,-122.1061C1873,-122.1061 1873,-140.991 1873,-140.991"/>
<polygon fill="#000000" stroke="#000000" points="1869.5001,-140.9909 1873,-150.991 1876.5001,-140.991 1869.5001,-140.9909"/>
</g>
<!-- BrowserAnimationsModule -->
<g id="node15" class="node">
<title>BrowserAnimationsModule</title>
<polygon fill="#8dd3c7" stroke="#000000" points="1765.3019,-122 1762.3019,-126 1741.3019,-126 1738.3019,-122 1592.6981,-122 1592.6981,-86 1765.3019,-86 1765.3019,-122"/>
<text text-anchor="middle" x="1679" y="-99.8" font-family="Times,serif" font-size="14.00" fill="#000000">BrowserAnimationsModule</text>
</g>
<!-- BrowserAnimationsModule&#45;&gt;AppModule -->
<g id="edge14" class="edge">
<title>BrowserAnimationsModule&#45;&gt;AppModule</title>
<path fill="none" stroke="#000000" d="M1679,-122.0511C1679,-136.373 1679,-154 1679,-154 1679,-154 1820.9049,-154 1820.9049,-154"/>
<polygon fill="#000000" stroke="#000000" points="1820.9049,-157.5001 1830.9049,-154 1820.9049,-150.5001 1820.9049,-157.5001"/>
</g>
<!-- BrowserModule -->
<g id="node16" class="node">
<title>BrowserModule</title>
<polygon fill="#8dd3c7" stroke="#000000" points="1574.4734,-122 1571.4734,-126 1550.4734,-126 1547.4734,-122 1467.5266,-122 1467.5266,-86 1574.4734,-86 1574.4734,-122"/>
<text text-anchor="middle" x="1521" y="-99.8" font-family="Times,serif" font-size="14.00" fill="#000000">BrowserModule</text>
</g>
<!-- BrowserModule&#45;&gt;AppModule -->
<g id="edge15" class="edge">
<title>BrowserModule&#45;&gt;AppModule</title>
<path fill="none" stroke="#000000" d="M1521,-122.2396C1521,-137.5706 1521,-157 1521,-157 1521,-157 1821.2387,-157 1821.2387,-157"/>
<polygon fill="#000000" stroke="#000000" points="1821.2387,-160.5001 1831.2387,-157 1821.2387,-153.5001 1821.2387,-160.5001"/>
</g>
<!-- FlexLayoutModule -->
<g id="node17" class="node">
<title>FlexLayoutModule</title>
<polygon fill="#8dd3c7" stroke="#000000" points="1449.0954,-122 1446.0954,-126 1425.0954,-126 1422.0954,-122 1324.9046,-122 1324.9046,-86 1449.0954,-86 1449.0954,-122"/>
<text text-anchor="middle" x="1387" y="-99.8" font-family="Times,serif" font-size="14.00" fill="#000000">FlexLayoutModule</text>
</g>
<!-- FlexLayoutModule&#45;&gt;AppModule -->
<g id="edge16" class="edge">
<title>FlexLayoutModule&#45;&gt;AppModule</title>
<path fill="none" stroke="#000000" d="M1387,-122.027C1387,-138.3976 1387,-160 1387,-160 1387,-160 1821.1433,-160 1821.1433,-160"/>
<polygon fill="#000000" stroke="#000000" points="1821.1433,-163.5001 1831.1433,-160 1821.1432,-156.5001 1821.1433,-163.5001"/>
</g>
<!-- LayoutModule -->
<g id="node18" class="node">
<title>LayoutModule</title>
<polygon fill="#8dd3c7" stroke="#000000" points="1306.7078,-122 1303.7078,-126 1282.7078,-126 1279.7078,-122 1207.2922,-122 1207.2922,-86 1306.7078,-86 1306.7078,-122"/>
<text text-anchor="middle" x="1257" y="-99.8" font-family="Times,serif" font-size="14.00" fill="#000000">LayoutModule</text>
</g>
<!-- LayoutModule&#45;&gt;AppModule -->
<g id="edge17" class="edge">
<title>LayoutModule&#45;&gt;AppModule</title>
<path fill="none" stroke="#000000" d="M1257,-122.0225C1257,-139.3734 1257,-163 1257,-163 1257,-163 1821.1441,-163 1821.1441,-163"/>
<polygon fill="#000000" stroke="#000000" points="1821.1441,-166.5001 1831.1441,-163 1821.1441,-159.5001 1821.1441,-166.5001"/>
</g>
<!-- MatButtonModule -->
<g id="node19" class="node">
<title>MatButtonModule</title>
<polygon fill="#8dd3c7" stroke="#000000" points="1189.2176,-122 1186.2176,-126 1165.2176,-126 1162.2176,-122 1068.7824,-122 1068.7824,-86 1189.2176,-86 1189.2176,-122"/>
<text text-anchor="middle" x="1129" y="-99.8" font-family="Times,serif" font-size="14.00" fill="#000000">MatButtonModule</text>
</g>
<!-- MatButtonModule&#45;&gt;AppModule -->
<g id="edge18" class="edge">
<title>MatButtonModule&#45;&gt;AppModule</title>
<path fill="none" stroke="#000000" d="M1129,-122.302C1129,-140.2699 1129,-165 1129,-165 1129,-165 1821.1367,-165 1821.1367,-165"/>
<polygon fill="#000000" stroke="#000000" points="1821.1368,-168.5001 1831.1367,-165 1821.1367,-161.5001 1821.1368,-168.5001"/>
</g>
<!-- MatCardModule -->
<g id="node20" class="node">
<title>MatCardModule</title>
<polygon fill="#8dd3c7" stroke="#000000" points="1050.8118,-122 1047.8118,-126 1026.8118,-126 1023.8118,-122 941.1882,-122 941.1882,-86 1050.8118,-86 1050.8118,-122"/>
<text text-anchor="middle" x="996" y="-99.8" font-family="Times,serif" font-size="14.00" fill="#000000">MatCardModule</text>
</g>
<!-- MatCardModule&#45;&gt;AppModule -->
<g id="edge19" class="edge">
<title>MatCardModule&#45;&gt;AppModule</title>
<path fill="none" stroke="#000000" d="M996,-122.1686C996,-141.0898 996,-168 996,-168 996,-168 1821.2905,-168 1821.2905,-168"/>
<polygon fill="#000000" stroke="#000000" points="1821.2905,-171.5001 1831.2905,-168 1821.2904,-164.5001 1821.2905,-171.5001"/>
</g>
<!-- MatGridListModule -->
<g id="node21" class="node">
<title>MatGridListModule</title>
<polygon fill="#8dd3c7" stroke="#000000" points="923.5366,-122 920.5366,-126 899.5366,-126 896.5366,-122 794.4634,-122 794.4634,-86 923.5366,-86 923.5366,-122"/>
<text text-anchor="middle" x="859" y="-99.8" font-family="Times,serif" font-size="14.00" fill="#000000">MatGridListModule</text>
</g>
<!-- MatGridListModule&#45;&gt;AppModule -->
<g id="edge20" class="edge">
<title>MatGridListModule&#45;&gt;AppModule</title>
<path fill="none" stroke="#000000" d="M859,-122.308C859,-142.1455 859,-171 859,-171 859,-171 1821.0407,-171 1821.0407,-171"/>
<polygon fill="#000000" stroke="#000000" points="1821.0407,-174.5001 1831.0407,-171 1821.0406,-167.5001 1821.0407,-174.5001"/>
</g>
<!-- MatIconModule -->
<g id="node22" class="node">
<title>MatIconModule</title>
<polygon fill="#8dd3c7" stroke="#000000" points="776.4748,-122 773.4748,-126 752.4748,-126 749.4748,-122 669.5252,-122 669.5252,-86 776.4748,-86 776.4748,-122"/>
<text text-anchor="middle" x="723" y="-99.8" font-family="Times,serif" font-size="14.00" fill="#000000">MatIconModule</text>
</g>
<!-- MatIconModule&#45;&gt;AppModule -->
<g id="edge21" class="edge">
<title>MatIconModule&#45;&gt;AppModule</title>
<path fill="none" stroke="#000000" d="M723,-122.0267C723,-142.7672 723,-174 723,-174 723,-174 1821.0499,-174 1821.0499,-174"/>
<polygon fill="#000000" stroke="#000000" points="1821.0499,-177.5001 1831.0499,-174 1821.0499,-170.5001 1821.0499,-177.5001"/>
</g>
<!-- MatListModule -->
<g id="node23" class="node">
<title>MatListModule</title>
<polygon fill="#8dd3c7" stroke="#000000" points="651.8781,-122 648.8781,-126 627.8781,-126 624.8781,-122 548.1219,-122 548.1219,-86 651.8781,-86 651.8781,-122"/>
<text text-anchor="middle" x="600" y="-99.8" font-family="Times,serif" font-size="14.00" fill="#000000">MatListModule</text>
</g>
<!-- MatListModule&#45;&gt;AppModule -->
<g id="edge22" class="edge">
<title>MatListModule&#45;&gt;AppModule</title>
<path fill="none" stroke="#000000" d="M600,-122.1686C600,-143.498 600,-176 600,-176 600,-176 1821.0076,-176 1821.0076,-176"/>
<polygon fill="#000000" stroke="#000000" points="1821.0076,-179.5001 1831.0076,-176 1821.0076,-172.5001 1821.0076,-179.5001"/>
</g>
<!-- MatSidenavModule -->
<g id="node24" class="node">
<title>MatSidenavModule</title>
<polygon fill="#8dd3c7" stroke="#000000" points="529.7022,-122 526.7022,-126 505.7022,-126 502.7022,-122 402.2978,-122 402.2978,-86 529.7022,-86 529.7022,-122"/>
<text text-anchor="middle" x="466" y="-99.8" font-family="Times,serif" font-size="14.00" fill="#000000">MatSidenavModule</text>
</g>
<!-- MatSidenavModule&#45;&gt;AppModule -->
<g id="edge23" class="edge">
<title>MatSidenavModule&#45;&gt;AppModule</title>
<path fill="none" stroke="#000000" d="M466,-122.1554C466,-144.3519 466,-179 466,-179 466,-179 1821.273,-179 1821.273,-179"/>
<polygon fill="#000000" stroke="#000000" points="1821.2731,-182.5001 1831.273,-179 1821.273,-175.5001 1821.2731,-182.5001"/>
</g>
<!-- MatToolbarModule -->
<g id="node25" class="node">
<title>MatToolbarModule</title>
<polygon fill="#8dd3c7" stroke="#000000" points="384.4187,-122 381.4187,-126 360.4187,-126 357.4187,-122 257.5813,-122 257.5813,-86 384.4187,-86 384.4187,-122"/>
<text text-anchor="middle" x="321" y="-99.8" font-family="Times,serif" font-size="14.00" fill="#000000">MatToolbarModule</text>
</g>
<!-- MatToolbarModule&#45;&gt;AppModule -->
<g id="edge24" class="edge">
<title>MatToolbarModule&#45;&gt;AppModule</title>
<path fill="none" stroke="#000000" d="M321,-122.0908C321,-145.1328 321,-182 321,-182 321,-182 1821.0862,-182 1821.0862,-182"/>
<polygon fill="#000000" stroke="#000000" points="1821.0862,-185.5001 1831.0862,-182 1821.0862,-178.5001 1821.0862,-185.5001"/>
</g>
<!-- GoogleAnalyticsService -->
<g id="node27" class="node">
<title>GoogleAnalyticsService</title>
<ellipse fill="#fdb462" stroke="#000000" cx="129" cy="-104" rx="105.3547" ry="18"/>
<text text-anchor="middle" x="129" y="-99.8" font-family="Times,serif" font-size="14.00" fill="#000000">GoogleAnalyticsService</text>
</g>
<!-- GoogleAnalyticsService&#45;&gt;AppModule -->
<g id="edge26" class="edge">
<title>GoogleAnalyticsService&#45;&gt;AppModule</title>
<path fill="none" stroke="#000000" d="M129,-122.3802C129,-146.2785 129,-185 129,-185 129,-185 1821.1828,-185 1821.1828,-185"/>
<polygon fill="#000000" stroke="#000000" points="1821.1828,-188.5001 1831.1828,-185 1821.1828,-181.5001 1821.1828,-188.5001"/>
</g>
</g>
</svg>
